HIERARCHY
ROOT pelvis
{
  OFFSET 0 100 0
  CHANNELS 6 Xposition Yposition Zposition Zrotation Xrotation Yrotation
  JOINT pelvis_right_femur
  {
    OFFSET -10.78128 -3.44521 -0.5502486
    CHANNELS 3 Zrotation Xrotation Yrotation
    JOINT right_femur_tibia
    {
      OFFSET -0.8047443 -44.0398 -0.1307829
      CHANNELS 3 Zrotation Xrotation Yrotation
      JOINT right_tibia_foot
      {
        OFFSET 3.006224 -47.83518 -5
        CHANNELS 3 Zrotation Xrotation Yrotation
        End Site
        {
          OFFSET 0 -5 15
        }
      }
    }
  }
  JOINT pelvis_left_femur
  {
    OFFSET 10.78128 -3.44521 -0.5502486
    CHANNELS 3 Zrotation Xrotation Yrotation
    JOINT left_femur_tibia
    {
      OFFSET 0.8047443 -44.0398 -0.1307829
      CHANNELS 3 Zrotation Xrotation Yrotation
      JOINT left_tibia_foot
      {
        OFFSET -4.370144 -48.10324 -4.275266
        CHANNELS 3 Zrotation Xrotation Yrotation
        End Site
        {
          OFFSET 0 -5 15
        }
      }
    }
  }
  JOINT pelvis_spine1
  {
    OFFSET 0 6.468898 -3.129235
    CHANNELS 3 Zrotation Xrotation Yrotation
    JOINT spine1
    {
      OFFSET 0 23.15396 4.99043
      CHANNELS 3 Zrotation Xrotation Yrotation
      JOINT spine2
      {
        OFFSET 0 20.79997 -5.064912
        CHANNELS 3 Zrotation Xrotation Yrotation
        JOINT neck
        {
          OFFSET 0 14.38658 9.616178
          CHANNELS 3 Zrotation Xrotation Yrotation
          End Site
          {
            OFFSET 0 20 0
          }
        }
      }
      JOINT right_manubrium
      {
        OFFSET -5.722621 16.35077 3.967754
        CHANNELS 3 Zrotation Xrotation Yrotation
        JOINT right_clavicle
        {
          OFFSET -13.16364 1.694482 -4.693211
          CHANNELS 3 Zrotation Xrotation Yrotation
          JOINT right_humerus
          {
            OFFSET -28.5034 -0.3100689 -2.792744
            CHANNELS 3 Zrotation Xrotation Yrotation
            JOINT right_radius
            {
              OFFSET -25.15693 0.02248979 -1.271978
              CHANNELS 3 Zrotation Xrotation Yrotation
              End Site
              {
                OFFSET -15 0 0
              }
            }
          }
        }
      }
      JOINT left_manubrium
      {
        OFFSET 5.722621 16.35077 3.967754
        CHANNELS 3 Zrotation Xrotation Yrotation
        JOINT left_clavicle
        {
          OFFSET 13.16364 1.694482 -4.693211
          CHANNELS 3 Zrotation Xrotation Yrotation
          JOINT left_humerus
          {
            OFFSET 29.39168 -1.063119 -2.237045
            CHANNELS 3 Zrotation Xrotation Yrotation
            JOINT left_radius
            {
              OFFSET 24.59957 -0.9528479 0.9047498
              CHANNELS 3 Zrotation Xrotation Yrotation
              End Site
              {
                OFFSET 15 -0 -0
              }
            }
          }
        }
      }
    }
  }
}
MOTION
Frames: 23
Frame Time: 0.0416666666667
-166.3567 102.0115 3272.618 -1.650492 -10.57539 -19.1105 0.4313351 14.6204 5.972934 -0 30.99679 -0 -2.776922 -13.08885 -5.992459 -2.825923 -14.2399 -7.346623 -0 21.78791 -0 -3.725612 -9.929857 23.22007 -2.103076 1.052178 5.390037 -0.8621781 7.486643 -2.348239 3.386834 25.58998 3.507773 0.7066758 -15.4601 7.555389 -1.233328 -18.11077 9.139946 85.88407 20.46179 -7.142616 -0 0 16.6234 -19.83893 6.762714 11.51035 4.876317 -14.64086 -2.536404 -93.71307 26.82457 19.57647 0 0 -4.739348 -2.014252 11.17574 14.06084
-167.7412 102.0145 3279.059 -1.657442 -10.57432 -19.14837 0.4313351 14.6204 5.972934 -0 30.99679 -0 -2.776922 -13.08885 -5.992459 -2.825923 -14.2399 -7.346623 -0 21.78791 -0 -3.725612 -9.929857 23.22007 -2.103076 1.052178 5.390037 -0.8621781 7.486643 -2.348239 3.386834 25.58998 3.507773 0.7066758 -15.4601 7.555389 -1.233328 -18.11077 9.139946 85.88407 20.46179 -7.142616 -0 0 16.6234 -19.83893 6.762714 11.51035 4.876317 -14.64086 -2.536404 -93.71307 26.82457 19.57647 0 0 -4.739348 -2.014252 11.17574 14.06084
-169.1299 102.0175 3285.499 -1.664391 -10.57324 -19.18624 0.4313351 14.6204 5.972934 -0 30.99679 -0 -2.776922 -13.08885 -5.992459 -2.825923 -14.2399 -7.346623 -0 21.78791 -0 -3.725612 -9.929857 23.22007 -2.103076 1.052178 5.390037 -0.8621781 7.486643 -2.348239 3.386834 25.58998 3.507773 0.7066758 -15.4601 7.555389 -1.233328 -18.11077 9.139946 85.88407 20.46179 -7.142616 -0 0 16.6234 -19.83893 6.762714 11.51035 4.876317 -14.64086 -2.536404 -93.71307 26.82457 19.57647 0 0 -4.739348 -2.014252 11.17574 14.06084
-170.5228 102.0205 3291.938 -1.67134 -10.57215 -19.22411 0.4313351 14.6204 5.972934 -0 30.99679 -0 -2.776922 -13.08885 -5.992459 -2.825923 -14.2399 -7.346623 -0 21.78791 -0 -3.725612 -9.929857 23.22007 -2.103076 1.052178 5.390037 -0.8621781 7.486643 -2.348239 3.386834 25.58998 3.507773 0.7066758 -15.4601 7.555389 -1.233328 -18.11077 9.139946 85.88407 20.46179 -7.142616 -0 0 16.6234 -19.83893 6.762714 11.51035 4.876317 -14.64086 -2.536404 -93.71307 26.82457 19.57647 0 0 -4.739348 -2.014252 11.17574 14.06084
-171.9199 102.0235 3298.376 -1.678288 -10.57106 -19.26198 0.4313351 14.6204 5.972934 -0 30.99679 -0 -2.776922 -13.08885 -5.992459 -2.825923 -14.2399 -7.346623 -0 21.78791 -0 -3.725612 -9.929857 23.22007 -2.103076 1.052178 5.390037 -0.8621781 7.486643 -2.348239 3.386834 25.58998 3.507773 0.7066758 -15.4601 7.555389 -1.233328 -18.11077 9.139946 85.88407 20.46179 -7.142616 -0 0 16.6234 -19.83893 6.762714 11.51035 4.876317 -14.64086 -2.536404 -93.71307 26.82457 19.57647 0 0 -4.739348 -2.014252 11.17574 14.06084
-173.3211 102.0265 3304.814 -1.685235 -10.56997 -19.29985 0.4313351 14.6204 5.972934 -0 30.99679 -0 -2.776922 -13.08885 -5.992459 -2.825923 -14.2399 -7.346623 -0 21.78791 -0 -3.725612 -9.929857 23.22007 -2.103076 1.052178 5.390037 -0.8621781 7.486643 -2.348239 3.386834 25.58998 3.507773 0.7066758 -15.4601 7.555389 -1.233328 -18.11077 9.139946 85.88407 20.46179 -7.142616 -0 0 16.6234 -19.83893 6.762714 11.51035 4.876317 -14.64086 -2.536404 -93.71307 26.82457 19.57647 0 0 -4.739348 -2.014252 11.17574 14.06084
-174.7266 102.0295 3311.25 -1.692182 -10.56887 -19.33772 0.4313351 14.6204 5.972934 -0 30.99679 -0 -2.776922 -13.08885 -5.992459 -2.825923 -14.2399 -7.346623 -0 21.78791 -0 -3.725612 -9.929857 23.22007 -2.103076 1.052178 5.390037 -0.8621781 7.486643 -2.348239 3.386834 25.58998 3.507773 0.7066758 -15.4601 7.555389 -1.233328 -18.11077 9.139946 85.88407 20.46179 -7.142616 -0 0 16.6234 -19.83893 6.762714 11.51035 4.876317 -14.64086 -2.536404 -93.71307 26.82457 19.57647 0 0 -4.739348 -2.014252 11.17574 14.06084
-176.1362 102.0325 3317.686 -1.699128 -10.56777 -19.37559 0.4313351 14.6204 5.972934 -0 30.99679 -0 -2.776922 -13.08885 -5.992459 -2.825923 -14.2399 -7.346623 -0 21.78791 -0 -3.725612 -9.929857 23.22007 -2.103076 1.052178 5.390037 -0.8621781 7.486643 -2.348239 3.386834 25.58998 3.507773 0.7066758 -15.4601 7.555389 -1.233328 -18.11077 9.139946 85.88407 20.46179 -7.142616 -0 0 16.6234 -19.83893 6.762714 11.51035 4.876317 -14.64086 -2.536404 -93.71307 26.82457 19.57647 0 0 -4.739348 -2.014252 11.17574 14.06084
-177.55 102.0355 3324.12 -1.706072 -10.56666 -19.41346 0.4313351 14.6204 5.972934 -0 30.99679 -0 -2.776922 -13.08885 -5.992459 -2.825923 -14.2399 -7.346623 -0 21.78791 -0 -3.725612 -9.929857 23.22007 -2.103076 1.052178 5.390037 -0.8621781 7.486643 -2.348239 3.386834 25.58998 3.507773 0.7066758 -15.4601 7.555389 -1.233328 -18.11077 9.139946 85.88407 20.46179 -7.142616 -0 0 16.6234 -19.83893 6.762714 11.51035 4.876317 -14.64086 -2.536404 -93.71307 26.82457 19.57647 0 0 -4.739348 -2.014252 11.17574 14.06084
-178.968 102.0385 3330.554 -1.713017 -10.56555 -19.45133 0.4313351 14.6204 5.972934 -0 30.99679 -0 -2.776922 -13.08885 -5.992459 -2.825923 -14.2399 -7.346623 -0 21.78791 -0 -3.725612 -9.929857 23.22007 -2.103076 1.052178 5.390037 -0.8621781 7.486643 -2.348239 3.386834 25.58998 3.507773 0.7066758 -15.4601 7.555389 -1.233328 -18.11077 9.139946 85.88407 20.46179 -7.142616 -0 0 16.6234 -19.83893 6.762714 11.51035 4.876317 -14.64086 -2.536404 -93.71307 26.82457 19.57647 0 0 -4.739348 -2.014252 11.17574 14.06084
-180.3901 102.0415 3336.986 -1.71996 -10.56444 -19.4892 0.4313351 14.6204 5.972934 -0 30.99679 -0 -2.776922 -13.08885 -5.992459 -2.825923 -14.2399 -7.346623 -0 21.78791 -0 -3.725612 -9.929857 23.22007 -2.103076 1.052178 5.390037 -0.8621781 7.486643 -2.348239 3.386834 25.58998 3.507773 0.7066758 -15.4601 7.555389 -1.233328 -18.11077 9.139946 85.88407 20.46179 -7.142616 -0 0 16.6234 -19.83893 6.762714 11.51035 4.876317 -14.64086 -2.536404 -93.71307 26.82457 19.57647 0 0 -4.739348 -2.014252 11.17574 14.06084
-181.8165 102.0445 3343.418 -1.726903 -10.56332 -19.52707 0.4313351 14.6204 5.972934 -0 30.99679 -0 -2.776922 -13.08885 -5.992459 -2.825923 -14.2399 -7.346623 -0 21.78791 -0 -3.725612 -9.929857 23.22007 -2.103076 1.052178 5.390037 -0.8621781 7.486643 -2.348239 3.386834 25.58998 3.507773 0.7066758 -15.4601 7.555389 -1.233328 -18.11077 9.139946 85.88407 20.46179 -7.142616 -0 0 16.6234 -19.83893 6.762714 11.51035 4.876317 -14.64086 -2.536404 -93.71307 26.82457 19.57647 0 0 -4.739348 -2.014252 11.17574 14.06084
-183.247 102.0475 3349.849 -1.733844 -10.56219 -19.56494 0.4313351 14.6204 5.972934 -0 30.99679 -0 -2.776922 -13.08885 -5.992459 -2.825923 -14.2399 -7.346623 -0 21.78791 -0 -3.725612 -9.929857 23.22007 -2.103076 1.052178 5.390037 -0.8621781 7.486643 -2.348239 3.386834 25.58998 3.507773 0.7066758 -15.4601 7.555389 -1.233328 -18.11077 9.139946 85.88407 20.46179 -7.142616 -0 0 16.6234 -19.83893 6.762714 11.51035 4.876317 -14.64086 -2.536404 -93.71307 26.82457 19.57647 0 0 -4.739348 -2.014252 11.17574 14.06084
-184.6817 102.0505 3356.279 -1.740785 -10.56106 -19.60281 0.4313351 14.6204 5.972934 -0 30.99679 -0 -2.776922 -13.08885 -5.992459 -2.825923 -14.2399 -7.346623 -0 21.78791 -0 -3.725612 -9.929857 23.22007 -2.103076 1.052178 5.390037 -0.8621781 7.486643 -2.348239 3.386834 25.58998 3.507773 0.7066758 -15.4601 7.555389 -1.233328 -18.11077 9.139946 85.88407 20.46179 -7.142616 -0 0 16.6234 -19.83893 6.762714 11.51035 4.876317 -14.64086 -2.536404 -93.71307 26.82457 19.57647 0 0 -4.739348 -2.014252 11.17574 14.06084
-186.1206 102.0536 3362.708 -1.747726 -10.55993 -19.64068 0.4313351 14.6204 5.972934 -0 30.99679 -0 -2.776922 -13.08885 -5.992459 -2.825923 -14.2399 -7.346623 -0 21.78791 -0 -3.725612 -9.929857 23.22007 -2.103076 1.052178 5.390037 -0.8621781 7.486643 -2.348239 3.386834 25.58998 3.507773 0.7066758 -15.4601 7.555389 -1.233328 -18.11077 9.139946 85.88407 20.46179 -7.142616 -0 0 16.6234 -19.83893 6.762714 11.51035 4.876317 -14.64086 -2.536404 -93.71307 26.82457 19.57647 0 0 -4.739348 -2.014252 11.17574 14.06084
-187.5636 102.0566 3369.136 -1.754665 -10.55879 -19.67855 0.4313351 14.6204 5.972934 -0 30.99679 -0 -2.776922 -13.08885 -5.992459 -2.825923 -14.2399 -7.346623 -0 21.78791 -0 -3.725612 -9.929857 23.22007 -2.103076 1.052178 5.390037 -0.8621781 7.486643 -2.348239 3.386834 25.58998 3.507773 0.7066758 -15.4601 7.555389 -1.233328 -18.11077 9.139946 85.88407 20.46179 -7.142616 -0 0 16.6234 -19.83893 6.762714 11.51035 4.876317 -14.64086 -2.536404 -93.71307 26.82457 19.57647 0 0 -4.739348 -2.014252 11.17574 14.06084
-189.0109 102.0596 3375.563 -1.761604 -10.55765 -19.71641 0.4313351 14.6204 5.972934 -0 30.99679 -0 -2.776922 -13.08885 -5.992459 -2.825923 -14.2399 -7.346623 -0 21.78791 -0 -3.725612 -9.929857 23.22007 -2.103076 1.052178 5.390037 -0.8621781 7.486643 -2.348239 3.386834 25.58998 3.507773 0.7066758 -15.4601 7.555389 -1.233328 -18.11077 9.139946 85.88407 20.46179 -7.142616 -0 0 16.6234 -19.83893 6.762714 11.51035 4.876317 -14.64086 -2.536404 -93.71307 26.82457 19.57647 0 0 -4.739348 -2.014252 11.17574 14.06084
-190.4623 102.0626 3381.989 -1.768542 -10.5565 -19.75428 0.4313351 14.6204 5.972934 -0 30.99679 -0 -2.776922 -13.08885 -5.992459 -2.825923 -14.2399 -7.346623 -0 21.78791 -0 -3.725612 -9.929857 23.22007 -2.103076 1.052178 5.390037 -0.8621781 7.486643 -2.348239 3.386834 25.58998 3.507773 0.7066758 -15.4601 7.555389 -1.233328 -18.11077 9.139946 85.88407 20.46179 -7.142616 -0 0 16.6234 -19.83893 6.762714 11.51035 4.876317 -14.64086 -2.536404 -93.71307 26.82457 19.57647 0 0 -4.739348 -2.014252 11.17574 14.06084
-191.9179 102.0656 3388.414 -1.775479 -10.55535 -19.79215 0.4313351 14.6204 5.972934 -0 30.99679 -0 -2.776922 -13.08885 -5.992459 -2.825923 -14.2399 -7.346623 -0 21.78791 -0 -3.725612 -9.929857 23.22007 -2.103076 1.052178 5.390037 -0.8621781 7.486643 -2.348239 3.386834 25.58998 3.507773 0.7066758 -15.4601 7.555389 -1.233328 -18.11077 9.139946 85.88407 20.46179 -7.142616 -0 0 16.6234 -19.83893 6.762714 11.51035 4.876317 -14.64086 -2.536404 -93.71307 26.82457 19.57647 0 0 -4.739348 -2.014252 11.17574 14.06084
-193.3777 102.0686 3394.839 -1.782415 -10.55419 -19.83001 0.4313351 14.6204 5.972934 -0 30.99679 -0 -2.776922 -13.08885 -5.992459 -2.825923 -14.2399 -7.346623 -0 21.78791 -0 -3.725612 -9.929857 23.22007 -2.103076 1.052178 5.390037 -0.8621781 7.486643 -2.348239 3.386834 25.58998 3.507773 0.7066758 -15.4601 7.555389 -1.233328 -18.11077 9.139946 85.88407 20.46179 -7.142616 -0 0 16.6234 -19.83893 6.762714 11.51035 4.876317 -14.64086 -2.536404 -93.71307 26.82457 19.57647 0 0 -4.739348 -2.014252 11.17574 14.06084
-194.8416 102.0716 3401.262 -1.789351 -10.55303 -19.86788 0.4313351 14.6204 5.972934 -0 30.99679 -0 -2.776922 -13.08885 -5.992459 -2.825923 -14.2399 -7.346623 -0 21.78791 -0 -3.725612 -9.929857 23.22007 -2.103076 1.052178 5.390037 -0.8621781 7.486643 -2.348239 3.386834 25.58998 3.507773 0.7066758 -15.4601 7.555389 -1.233328 -18.11077 9.139946 85.88407 20.46179 -7.142616 -0 0 16.6234 -19.83893 6.762714 11.51035 4.876317 -14.64086 -2.536404 -93.71307 26.82457 19.57647 0 0 -4.739348 -2.014252 11.17574 14.06084
-196.3097 102.0746 3407.684 -1.796285 -10.55187 -19.90575 0.4313351 14.6204 5.972934 -0 30.99679 -0 -2.776922 -13.08885 -5.992459 -2.825923 -14.2399 -7.346623 -0 21.78791 -0 -3.725612 -9.929857 23.22007 -2.103076 1.052178 5.390037 -0.8621781 7.486643 -2.348239 3.386834 25.58998 3.507773 0.7066758 -15.4601 7.555389 -1.233328 -18.11077 9.139946 85.88407 20.46179 -7.142616 -0 0 16.6234 -19.83893 6.762714 11.51035 4.876317 -14.64086 -2.536404 -93.71307 26.82457 19.57647 0 0 -4.739348 -2.014252 11.17574 14.06084
-197.782 102.0776 3414.106 -1.803219 -10.5507 -19.94361 0.4313351 14.6204 5.972934 -0 30.99679 -0 -2.776922 -13.08885 -5.992459 -2.825923 -14.2399 -7.346623 -0 21.78791 -0 -3.725612 -9.929857 23.22007 -2.103076 1.052178 5.390037 -0.8621781 7.486643 -2.348239 3.386834 25.58998 3.507773 0.7066758 -15.4601 7.555389 -1.233328 -18.11077 9.139946 85.88407 20.46179 -7.142616 -0 0 16.6234 -19.83893 6.762714 11.51035 4.876317 -14.64086 -2.536404 -93.71307 26.82457 19.57647 0 0 -4.739348 -2.014252 11.17574 14.06084
